<svg id="Layer_1" xmlns="http://www.w3.org/2000/svg" viewBox="0 0 30.08 25.57"><defs><style>.cls-1{fill:none;}</style></defs><title>step7-icon</title><path class="cls-1" d="M23.73,5.38l-2.12-.49q0.21,0.47.38,1Z"/><path class="cls-1" d="M8.76,7.48v4.16a0.5,0.5,0,1,1-1,0V7.19L6.28,6.76h0L3.67,6V19.35l10.07,4.92V8.92Z"/><path class="cls-1" d="M6.61,5l-1.5.36L6.44,5.77C6.49,5.51,6.54,5.26,6.61,5Z"/><path class="cls-1" d="M18.49,13.47L14.74,9.74V24.26L25.25,19V11.58l-6.25,2A0.5,0.5,0,0,1,18.49,13.47Z"/><path d="M10.8,4l0,0a0.55,0.55,0,0,0,.17,0,2.26,2.26,0,0,1,.33,0,3.21,3.21,0,0,1,.5.1A3.44,3.44,0,0,1,13,4.75a3.75,3.75,0,0,1,.79.83,4.76,4.76,0,0,1,.54,1,0.5,0.5,0,0,0,.93-0.37,5.89,5.89,0,0,0-.44-0.89,5,5,0,0,0-.67-0.86,4.6,4.6,0,0,0-1.3-1,4.48,4.48,0,0,0-.63-0.26,4.22,4.22,0,0,0-.51-0.13,3.51,3.51,0,0,0-.51-0.06H11a0.5,0.5,0,0,0-.47.53A0.49,0.49,0,0,0,10.8,4Z"/><path d="M30,9.33L26.12,5h0a0.49,0.49,0,0,0-.2-0.12h0L21,3.72C19.61,1.47,17.52,0,15.43,0H15L14.82,0l-0.59.13-3.94.9h0l-0.07,0h0A4.86,4.86,0,0,0,7,3.88l-4,1H3L3,4.89l-0.05,0A0.49,0.49,0,0,0,2.8,5h0L0.12,8.13A0.5,0.5,0,0,0,.48,9L2.67,9V19.66a0.5,0.5,0,0,0,.28.45L14,25.52h0a0.47,0.47,0,0,0,.42,0h0L26,19.77a0.5,0.5,0,0,0,.28-0.45V11.26l3.49-1.12A0.5,0.5,0,0,0,30,9.33Zm-3.71.88-1,.32-6.27,2L15.2,8.79l10-2.8,0.33-.09,0.67,0.75L28.7,9.42ZM8.39,3.56a3.6,3.6,0,0,1,2.07-1.48A5.24,5.24,0,0,1,11.24,2a3.69,3.69,0,0,1,.53.06,4,4,0,0,1,.52.11,4.5,4.5,0,0,1,.53.18L13,2.44a5.93,5.93,0,0,1,1.14.75,7.48,7.48,0,0,1,1,1,8.79,8.79,0,0,1,.64.87,9.72,9.72,0,0,1,1.06,2.22l-0.7.2-0.47.13L14.24,8h0l-0.9-.26h0c0-.05,0-0.11,0-0.17A2.41,2.41,0,0,0,12.25,6a2,2,0,0,0-.71-0.28,2.58,2.58,0,0,0-.82,0,1.91,1.91,0,0,0-.21.08,2.21,2.21,0,0,0-1.08.85h0L7.86,6.18,7.39,6h0a6.86,6.86,0,0,1,.38-1.3A5.43,5.43,0,0,1,8.39,3.56Zm11.14,0c0.12,0.15.24,0.32,0.35,0.49l0.23,0.34-0.33.08-2.74.69L16.87,4.8c-0.09-.17-0.19-0.34-0.29-0.5L17.79,4ZM18.08,7L17.83,7l-0.06-.16,0-.11c-0.07-.2-0.15-0.42-0.26-0.67l3.14-.79c0.13,0.27.26,0.55,0.38,0.85Zm0.71-4.24-1,.25L16,3.42a8,8,0,0,0-.64-0.72L16,2.54,18,2A6.89,6.89,0,0,1,18.78,2.71ZM14.67,1.1L15.11,1h0.23a5,5,0,0,1,1.32.32l-2.26.57a5.63,5.63,0,0,0-.68-0.37c-0.09,0-.18-0.11-0.27-0.15l1.15-.27Zm9.06,4.28L22,5.86q-0.17-.5-0.38-1ZM6.61,5c-0.07.24-.12,0.49-0.17,0.75L5.11,5.38ZM3.67,8.54V6L6.28,6.76h0L7.76,7.19v4.45a0.5,0.5,0,1,0,1,0V7.48l5,1.44V24.27L3.67,19.35V8.54ZM25.25,19L14.74,24.26V9.74l3.75,3.73a0.5,0.5,0,0,0,.5.12l6.25-2V19Z"/></svg>