<svg id="Layer_1" xmlns="http://www.w3.org/2000/svg" viewBox="0 0 36.02 26.74"><defs><style>.cls-1{fill:none;}</style></defs><title>step3-icon</title><path class="cls-1" d="M24.26,12.75H26.5A5.29,5.29,0,0,0,25.16,9.7l-1.58,1.58A3.06,3.06,0,0,1,24.26,12.75Z"/><path class="cls-1" d="M22.83,10.62L24.43,9a5.27,5.27,0,0,0-2.71-1v2.24A3.06,3.06,0,0,1,22.83,10.62Z"/><path class="cls-1" d="M23.65,15.15l1.58,1.58a5.28,5.28,0,0,0,1.27-3H24.26A3.06,3.06,0,0,1,23.65,15.15Z"/><path class="cls-1" d="M18.17,13.75H15.94A5.27,5.27,0,0,0,17,16.54L18.63,15A3.07,3.07,0,0,1,18.17,13.75Z"/><path class="cls-1" d="M21.72,16.3v2.24a5.27,5.27,0,0,0,2.78-1.11l-1.59-1.59A3.07,3.07,0,0,1,21.72,16.3Z"/><path class="cls-1" d="M18.59,11.65L17,10a5.27,5.27,0,0,0-1,2.71h2.24A3.06,3.06,0,0,1,18.59,11.65Z"/><path class="cls-1" d="M20.72,10.21V8a5.29,5.29,0,0,0-3.06,1.34l1.58,1.58A3.06,3.06,0,0,1,20.72,10.21Z"/><path class="cls-1" d="M29.16,16.82l-0.07,0,0.06,0.13v-0.1Z"/><path class="cls-1" d="M21.22,23a0.5,0.5,0,0,1,0-1A8.75,8.75,0,0,0,29,17.27V16.72a1.09,1.09,0,0,1,.17-2V10.59H30.9V6.75a11.66,11.66,0,0,0-21.34,6.4,2.18,2.18,0,0,1,1.26,2v0H13.7a1.47,1.47,0,0,1,1.47,1.47v6.58A11.58,11.58,0,0,0,29,21.94V19.13A9.73,9.73,0,0,1,21.22,23ZM12.7,11.25a0.5,0.5,0,0,1-.49.39H12.1a0.5,0.5,0,0,1-.37-0.6,9.71,9.71,0,0,1,6.23-7,0.5,0.5,0,0,1,.33.94A8.82,8.82,0,0,0,12.7,11.25Zm2.19,2a6.33,6.33,0,1,1,6.33,6.33A6.34,6.34,0,0,1,14.88,13.25Z"/><path class="cls-1" d="M19.32,15.68l-1.58,1.58a5.28,5.28,0,0,0,3,1.27V16.3A3.06,3.06,0,0,1,19.32,15.68Z"/><path d="M30.9,5.1A12.65,12.65,0,0,0,8.57,12.94H8.63a2.17,2.17,0,0,1,.93.21A11.66,11.66,0,0,1,30.9,6.75V5.1Z"/><path d="M15.17,23.21v1.17A12.61,12.61,0,0,0,29,23.24v-1.3A11.58,11.58,0,0,1,15.17,23.21Z"/><path d="M21.22,22a0.5,0.5,0,0,0,0,1A9.73,9.73,0,0,0,29,19.13V17.27A8.75,8.75,0,0,1,21.22,22Z"/><path d="M29.16,16.94v0Z"/><path d="M18.59,4.37A0.5,0.5,0,0,0,18,4.06a9.71,9.71,0,0,0-6.23,7,0.5,0.5,0,0,0,.37.6h0.11a0.5,0.5,0,0,0,.49-0.39A8.82,8.82,0,0,1,18.29,5,0.5,0.5,0,0,0,18.59,4.37Z"/><path d="M21.22,19.59a6.33,6.33,0,1,0-6.33-6.33A6.34,6.34,0,0,0,21.22,19.59Zm-1.9-3.91a3.06,3.06,0,0,0,1.4.62v2.24a5.28,5.28,0,0,1-3-1.27Zm2.4,2.86V16.3a3.07,3.07,0,0,0,1.2-.46l1.59,1.59A5.27,5.27,0,0,1,21.72,18.54Zm3.51-1.8-1.58-1.58a3.06,3.06,0,0,0,.62-1.4H26.5A5.28,5.28,0,0,1,25.23,16.73Zm1.27-4H24.26a3.06,3.06,0,0,0-.68-1.48L25.16,9.7A5.29,5.29,0,0,1,26.5,12.75Zm-3.68-2.13a3.06,3.06,0,0,0-1.11-.41V8a5.27,5.27,0,0,1,2.71,1ZM20.72,8v2.24a3.06,3.06,0,0,0-1.48.68L17.66,9.31A5.29,5.29,0,0,1,20.72,8ZM17,10l1.6,1.6a3.06,3.06,0,0,0-.41,1.11H15.94A5.27,5.27,0,0,1,17,10Zm1.19,3.71a3.07,3.07,0,0,0,.46,1.2L17,16.54a5.27,5.27,0,0,1-1.11-2.78h2.24Z"/><path d="M34.83,14H33.05V4.12l0.59-1L33.25,1l-0.2-1H32l-0.2,1-0.39,2L32,4.16V14H30.34a1.32,1.32,0,0,0-.84.35,1.24,1.24,0,0,0,0,1.67h0l0.09,0.06a1.17,1.17,0,0,0,.73.28h0.1a0.39,0.39,0,0,1-.07.13,0.4,0.4,0,0,1-.28.22l-0.33.05v7.11h0a2.84,2.84,0,0,0,5.68,0V16.79l-0.33-.05a0.5,0.5,0,0,1-.34-0.35h0.07a1.06,1.06,0,0,0,.17,0,1.2,1.2,0,0,0,1-1.15A1.19,1.19,0,0,0,34.83,14Zm0.35,1.38a0.37,0.37,0,0,1-.35.21H34.2l-0.1.22a1.15,1.15,0,0,0-.06.26,1.16,1.16,0,0,0,.62,1.3v6.49a2,2,0,0,1-1.37,1.94h0V18a0.59,0.59,0,0,0,0-.17,0.59,0.59,0,0,0-1.07-.15,0.58,0.58,0,0,0-.07.17V18a0.57,0.57,0,0,0,0,.08v7.85a2.07,2.07,0,0,1-.77-0.4,1.91,1.91,0,0,1-.18-0.13,2.06,2.06,0,0,1-.61-1.46V17.4a1.17,1.17,0,0,0,.56-1.56L31,15.68l0-.07H30.34a0.39,0.39,0,0,1-.4-0.34,0.4,0.4,0,0,1,0-.08,0.42,0.42,0,0,1,.41-0.41h4.49a0.41,0.41,0,0,1,.41.41A0.4,0.4,0,0,1,35.19,15.4Z"/><polygon points="7.59 19.21 6.59 19.21 6.59 20.63 5.18 20.63 5.18 21.63 6.59 21.63 6.59 23.05 7.59 23.05 7.59 21.63 9.01 21.63 9.01 20.63 7.59 20.63 7.59 19.21"/><path d="M12.22,16.29H10.09V15.62a2,2,0,0,0-2-2H6.07a2,2,0,0,0-2,2v0.66H2a2,2,0,0,0-2,2V24a2,2,0,0,0,2,2H12.22a2,2,0,0,0,2-2V18.25A2,2,0,0,0,12.22,16.29ZM5.1,15.62a0.94,0.94,0,0,1,.13-0.46,1,1,0,0,1,.83-0.5H8.12a1,1,0,0,1,1,1v0.66h-4V15.62ZM13.19,23v1a1,1,0,0,1-1,1H2a1,1,0,0,1-1-1V18.25a1,1,0,0,1,1-1H12.22a1,1,0,0,1,1,1V23Z"/></svg>